<?xml version="1.0" encoding="utf-8" standalone="no"?>
<!DOCTYPE svg PUBLIC "-//W3C//DTD SVG 1.1//EN"
  "http://www.w3.org/Graphics/SVG/1.1/DTD/svg11.dtd">
<svg xmlns:xlink="http://www.w3.org/1999/xlink" width="1080pt" height="720pt" viewBox="0 0 1080 720" xmlns="http://www.w3.org/2000/svg" version="1.1">
 <metadata>
  <rdf:RDF xmlns:dc="http://purl.org/dc/elements/1.1/" xmlns:cc="http://creativecommons.org/ns#" xmlns:rdf="http://www.w3.org/1999/02/22-rdf-syntax-ns#">
   <cc:Work>
    <dc:type rdf:resource="http://purl.org/dc/dcmitype/StillImage"/>
    <dc:date>2022-07-21T13:00:13.529375</dc:date>
    <dc:format>image/svg+xml</dc:format>
    <dc:creator>
     <cc:Agent>
      <dc:title>Matplotlib v3.5.2, https://matplotlib.org/</dc:title>
     </cc:Agent>
    </dc:creator>
   </cc:Work>
  </rdf:RDF>
 </metadata>
 <defs>
  <style type="text/css">*{stroke-linejoin: round; stroke-linecap: butt}</style>
 </defs>
 <g id="figure_1">
  <g id="patch_1">
   <path d="M 0 720 
L 1080 720 
L 1080 0 
L 0 0 
L 0 720 
z
" style="fill: none"/>
  </g>
  <g id="axes_1">
   <g id="patch_2">
    <path d="M 135 630 
L 972 630 
L 972 86.4 
L 135 86.4 
L 135 630 
z
" style="fill: none"/>
   </g>
   <g id="matplotlib.axis_1">
    <g id="xtick_1">
     <g id="line2d_1">
      <defs>
       <path id="m5eabf9af4c" d="M 0 0 
L 0 6 
" style="stroke: #262626; stroke-width: 1.25"/>
      </defs>
      <g>
       <use xlink:href="#m5eabf9af4c" x="173.045455" y="630" style="fill: #262626; stroke: #262626; stroke-width: 1.25"/>
      </g>
     </g>
     <g id="text_1">
      <!-- 2017-01 -->
      <g style="fill: #262626" transform="translate(152.863033 647.373594)scale(0.11 -0.11)">
       <defs>
        <path id="ArialMT-32" d="M 3222 541 
L 3222 0 
L 194 0 
Q 188 203 259 391 
Q 375 700 629 1000 
Q 884 1300 1366 1694 
Q 2113 2306 2375 2664 
Q 2638 3022 2638 3341 
Q 2638 3675 2398 3904 
Q 2159 4134 1775 4134 
Q 1369 4134 1125 3890 
Q 881 3647 878 3216 
L 300 3275 
Q 359 3922 746 4261 
Q 1134 4600 1788 4600 
Q 2447 4600 2831 4234 
Q 3216 3869 3216 3328 
Q 3216 3053 3103 2787 
Q 2991 2522 2730 2228 
Q 2469 1934 1863 1422 
Q 1356 997 1212 845 
Q 1069 694 975 541 
L 3222 541 
z
" transform="scale(0.015625)"/>
        <path id="ArialMT-30" d="M 266 2259 
Q 266 3072 433 3567 
Q 600 4063 929 4331 
Q 1259 4600 1759 4600 
Q 2128 4600 2406 4451 
Q 2684 4303 2865 4023 
Q 3047 3744 3150 3342 
Q 3253 2941 3253 2259 
Q 3253 1453 3087 958 
Q 2922 463 2592 192 
Q 2263 -78 1759 -78 
Q 1097 -78 719 397 
Q 266 969 266 2259 
z
M 844 2259 
Q 844 1131 1108 757 
Q 1372 384 1759 384 
Q 2147 384 2411 759 
Q 2675 1134 2675 2259 
Q 2675 3391 2411 3762 
Q 2147 4134 1753 4134 
Q 1366 4134 1134 3806 
Q 844 3388 844 2259 
z
" transform="scale(0.015625)"/>
        <path id="ArialMT-31" d="M 2384 0 
L 1822 0 
L 1822 3584 
Q 1619 3391 1289 3197 
Q 959 3003 697 2906 
L 697 3450 
Q 1169 3672 1522 3987 
Q 1875 4303 2022 4600 
L 2384 4600 
L 2384 0 
z
" transform="scale(0.015625)"/>
        <path id="ArialMT-37" d="M 303 3981 
L 303 4522 
L 3269 4522 
L 3269 4084 
Q 2831 3619 2401 2847 
Q 1972 2075 1738 1259 
Q 1569 684 1522 0 
L 944 0 
Q 953 541 1156 1306 
Q 1359 2072 1739 2783 
Q 2119 3494 2547 3981 
L 303 3981 
z
" transform="scale(0.015625)"/>
        <path id="ArialMT-2d" d="M 203 1375 
L 203 1941 
L 1931 1941 
L 1931 1375 
L 203 1375 
z
" transform="scale(0.015625)"/>
       </defs>
       <use xlink:href="#ArialMT-32"/>
       <use xlink:href="#ArialMT-30" x="55.615234"/>
       <use xlink:href="#ArialMT-31" x="111.230469"/>
       <use xlink:href="#ArialMT-37" x="166.845703"/>
       <use xlink:href="#ArialMT-2d" x="222.460938"/>
       <use xlink:href="#ArialMT-30" x="255.761719"/>
       <use xlink:href="#ArialMT-31" x="311.376953"/>
      </g>
     </g>
    </g>
    <g id="xtick_2">
     <g id="line2d_2">
      <g>
       <use xlink:href="#m5eabf9af4c" x="227.396104" y="630" style="fill: #262626; stroke: #262626; stroke-width: 1.25"/>
      </g>
     </g>
     <g id="text_2">
      <!-- 2017-02 -->
      <g style="fill: #262626" transform="translate(207.213682 647.373594)scale(0.11 -0.11)">
       <use xlink:href="#ArialMT-32"/>
       <use xlink:href="#ArialMT-30" x="55.615234"/>
       <use xlink:href="#ArialMT-31" x="111.230469"/>
       <use xlink:href="#ArialMT-37" x="166.845703"/>
       <use xlink:href="#ArialMT-2d" x="222.460938"/>
       <use xlink:href="#ArialMT-30" x="255.761719"/>
       <use xlink:href="#ArialMT-32" x="311.376953"/>
      </g>
     </g>
    </g>
    <g id="xtick_3">
     <g id="line2d_3">
      <g>
       <use xlink:href="#m5eabf9af4c" x="281.746753" y="630" style="fill: #262626; stroke: #262626; stroke-width: 1.25"/>
      </g>
     </g>
     <g id="text_3">
      <!-- 2017-03 -->
      <g style="fill: #262626" transform="translate(261.564331 647.373594)scale(0.11 -0.11)">
       <defs>
        <path id="ArialMT-33" d="M 269 1209 
L 831 1284 
Q 928 806 1161 595 
Q 1394 384 1728 384 
Q 2125 384 2398 659 
Q 2672 934 2672 1341 
Q 2672 1728 2419 1979 
Q 2166 2231 1775 2231 
Q 1616 2231 1378 2169 
L 1441 2663 
Q 1497 2656 1531 2656 
Q 1891 2656 2178 2843 
Q 2466 3031 2466 3422 
Q 2466 3731 2256 3934 
Q 2047 4138 1716 4138 
Q 1388 4138 1169 3931 
Q 950 3725 888 3313 
L 325 3413 
Q 428 3978 793 4289 
Q 1159 4600 1703 4600 
Q 2078 4600 2393 4439 
Q 2709 4278 2876 4000 
Q 3044 3722 3044 3409 
Q 3044 3113 2884 2869 
Q 2725 2625 2413 2481 
Q 2819 2388 3044 2092 
Q 3269 1797 3269 1353 
Q 3269 753 2831 336 
Q 2394 -81 1725 -81 
Q 1122 -81 723 278 
Q 325 638 269 1209 
z
" transform="scale(0.015625)"/>
       </defs>
       <use xlink:href="#ArialMT-32"/>
       <use xlink:href="#ArialMT-30" x="55.615234"/>
       <use xlink:href="#ArialMT-31" x="111.230469"/>
       <use xlink:href="#ArialMT-37" x="166.845703"/>
       <use xlink:href="#ArialMT-2d" x="222.460938"/>
       <use xlink:href="#ArialMT-30" x="255.761719"/>
       <use xlink:href="#ArialMT-33" x="311.376953"/>
      </g>
     </g>
    </g>
    <g id="xtick_4">
     <g id="line2d_4">
      <g>
       <use xlink:href="#m5eabf9af4c" x="336.097403" y="630" style="fill: #262626; stroke: #262626; stroke-width: 1.25"/>
      </g>
     </g>
     <g id="text_4">
      <!-- 2017-04 -->
      <g style="fill: #262626" transform="translate(315.914981 647.373594)scale(0.11 -0.11)">
       <defs>
        <path id="ArialMT-34" d="M 2069 0 
L 2069 1097 
L 81 1097 
L 81 1613 
L 2172 4581 
L 2631 4581 
L 2631 1613 
L 3250 1613 
L 3250 1097 
L 2631 1097 
L 2631 0 
L 2069 0 
z
M 2069 1613 
L 2069 3678 
L 634 1613 
L 2069 1613 
z
" transform="scale(0.015625)"/>
       </defs>
       <use xlink:href="#ArialMT-32"/>
       <use xlink:href="#ArialMT-30" x="55.615234"/>
       <use xlink:href="#ArialMT-31" x="111.230469"/>
       <use xlink:href="#ArialMT-37" x="166.845703"/>
       <use xlink:href="#ArialMT-2d" x="222.460938"/>
       <use xlink:href="#ArialMT-30" x="255.761719"/>
       <use xlink:href="#ArialMT-34" x="311.376953"/>
      </g>
     </g>
    </g>
    <g id="xtick_5">
     <g id="line2d_5">
      <g>
       <use xlink:href="#m5eabf9af4c" x="390.448052" y="630" style="fill: #262626; stroke: #262626; stroke-width: 1.25"/>
      </g>
     </g>
     <g id="text_5">
      <!-- 2017-05 -->
      <g style="fill: #262626" transform="translate(370.26563 647.373594)scale(0.11 -0.11)">
       <defs>
        <path id="ArialMT-35" d="M 266 1200 
L 856 1250 
Q 922 819 1161 601 
Q 1400 384 1738 384 
Q 2144 384 2425 690 
Q 2706 997 2706 1503 
Q 2706 1984 2436 2262 
Q 2166 2541 1728 2541 
Q 1456 2541 1237 2417 
Q 1019 2294 894 2097 
L 366 2166 
L 809 4519 
L 3088 4519 
L 3088 3981 
L 1259 3981 
L 1013 2750 
Q 1425 3038 1878 3038 
Q 2478 3038 2890 2622 
Q 3303 2206 3303 1553 
Q 3303 931 2941 478 
Q 2500 -78 1738 -78 
Q 1113 -78 717 272 
Q 322 622 266 1200 
z
" transform="scale(0.015625)"/>
       </defs>
       <use xlink:href="#ArialMT-32"/>
       <use xlink:href="#ArialMT-30" x="55.615234"/>
       <use xlink:href="#ArialMT-31" x="111.230469"/>
       <use xlink:href="#ArialMT-37" x="166.845703"/>
       <use xlink:href="#ArialMT-2d" x="222.460938"/>
       <use xlink:href="#ArialMT-30" x="255.761719"/>
       <use xlink:href="#ArialMT-35" x="311.376953"/>
      </g>
     </g>
    </g>
    <g id="xtick_6">
     <g id="line2d_6">
      <g>
       <use xlink:href="#m5eabf9af4c" x="444.798701" y="630" style="fill: #262626; stroke: #262626; stroke-width: 1.25"/>
      </g>
     </g>
     <g id="text_6">
      <!-- 2017-06 -->
      <g style="fill: #262626" transform="translate(424.616279 647.373594)scale(0.11 -0.11)">
       <defs>
        <path id="ArialMT-36" d="M 3184 3459 
L 2625 3416 
Q 2550 3747 2413 3897 
Q 2184 4138 1850 4138 
Q 1581 4138 1378 3988 
Q 1113 3794 959 3422 
Q 806 3050 800 2363 
Q 1003 2672 1297 2822 
Q 1591 2972 1913 2972 
Q 2475 2972 2870 2558 
Q 3266 2144 3266 1488 
Q 3266 1056 3080 686 
Q 2894 316 2569 119 
Q 2244 -78 1831 -78 
Q 1128 -78 684 439 
Q 241 956 241 2144 
Q 241 3472 731 4075 
Q 1159 4600 1884 4600 
Q 2425 4600 2770 4297 
Q 3116 3994 3184 3459 
z
M 888 1484 
Q 888 1194 1011 928 
Q 1134 663 1356 523 
Q 1578 384 1822 384 
Q 2178 384 2434 671 
Q 2691 959 2691 1453 
Q 2691 1928 2437 2201 
Q 2184 2475 1800 2475 
Q 1419 2475 1153 2201 
Q 888 1928 888 1484 
z
" transform="scale(0.015625)"/>
       </defs>
       <use xlink:href="#ArialMT-32"/>
       <use xlink:href="#ArialMT-30" x="55.615234"/>
       <use xlink:href="#ArialMT-31" x="111.230469"/>
       <use xlink:href="#ArialMT-37" x="166.845703"/>
       <use xlink:href="#ArialMT-2d" x="222.460938"/>
       <use xlink:href="#ArialMT-30" x="255.761719"/>
       <use xlink:href="#ArialMT-36" x="311.376953"/>
      </g>
     </g>
    </g>
    <g id="xtick_7">
     <g id="line2d_7">
      <g>
       <use xlink:href="#m5eabf9af4c" x="499.149351" y="630" style="fill: #262626; stroke: #262626; stroke-width: 1.25"/>
      </g>
     </g>
     <g id="text_7">
      <!-- 2017-07 -->
      <g style="fill: #262626" transform="translate(478.966929 647.373594)scale(0.11 -0.11)">
       <use xlink:href="#ArialMT-32"/>
       <use xlink:href="#ArialMT-30" x="55.615234"/>
       <use xlink:href="#ArialMT-31" x="111.230469"/>
       <use xlink:href="#ArialMT-37" x="166.845703"/>
       <use xlink:href="#ArialMT-2d" x="222.460938"/>
       <use xlink:href="#ArialMT-30" x="255.761719"/>
       <use xlink:href="#ArialMT-37" x="311.376953"/>
      </g>
     </g>
    </g>
    <g id="xtick_8">
     <g id="line2d_8">
      <g>
       <use xlink:href="#m5eabf9af4c" x="553.5" y="630" style="fill: #262626; stroke: #262626; stroke-width: 1.25"/>
      </g>
     </g>
     <g id="text_8">
      <!-- 2017-08 -->
      <g style="fill: #262626" transform="translate(533.317578 647.373594)scale(0.11 -0.11)">
       <defs>
        <path id="ArialMT-38" d="M 1131 2484 
Q 781 2613 612 2850 
Q 444 3088 444 3419 
Q 444 3919 803 4259 
Q 1163 4600 1759 4600 
Q 2359 4600 2725 4251 
Q 3091 3903 3091 3403 
Q 3091 3084 2923 2848 
Q 2756 2613 2416 2484 
Q 2838 2347 3058 2040 
Q 3278 1734 3278 1309 
Q 3278 722 2862 322 
Q 2447 -78 1769 -78 
Q 1091 -78 675 323 
Q 259 725 259 1325 
Q 259 1772 486 2073 
Q 713 2375 1131 2484 
z
M 1019 3438 
Q 1019 3113 1228 2906 
Q 1438 2700 1772 2700 
Q 2097 2700 2305 2904 
Q 2513 3109 2513 3406 
Q 2513 3716 2298 3927 
Q 2084 4138 1766 4138 
Q 1444 4138 1231 3931 
Q 1019 3725 1019 3438 
z
M 838 1322 
Q 838 1081 952 856 
Q 1066 631 1291 507 
Q 1516 384 1775 384 
Q 2178 384 2440 643 
Q 2703 903 2703 1303 
Q 2703 1709 2433 1975 
Q 2163 2241 1756 2241 
Q 1359 2241 1098 1978 
Q 838 1716 838 1322 
z
" transform="scale(0.015625)"/>
       </defs>
       <use xlink:href="#ArialMT-32"/>
       <use xlink:href="#ArialMT-30" x="55.615234"/>
       <use xlink:href="#ArialMT-31" x="111.230469"/>
       <use xlink:href="#ArialMT-37" x="166.845703"/>
       <use xlink:href="#ArialMT-2d" x="222.460938"/>
       <use xlink:href="#ArialMT-30" x="255.761719"/>
       <use xlink:href="#ArialMT-38" x="311.376953"/>
      </g>
     </g>
    </g>
    <g id="xtick_9">
     <g id="line2d_9">
      <g>
       <use xlink:href="#m5eabf9af4c" x="607.850649" y="630" style="fill: #262626; stroke: #262626; stroke-width: 1.25"/>
      </g>
     </g>
     <g id="text_9">
      <!-- 2017-09 -->
      <g style="fill: #262626" transform="translate(587.668227 647.373594)scale(0.11 -0.11)">
       <defs>
        <path id="ArialMT-39" d="M 350 1059 
L 891 1109 
Q 959 728 1153 556 
Q 1347 384 1650 384 
Q 1909 384 2104 503 
Q 2300 622 2425 820 
Q 2550 1019 2634 1356 
Q 2719 1694 2719 2044 
Q 2719 2081 2716 2156 
Q 2547 1888 2255 1720 
Q 1963 1553 1622 1553 
Q 1053 1553 659 1965 
Q 266 2378 266 3053 
Q 266 3750 677 4175 
Q 1088 4600 1706 4600 
Q 2153 4600 2523 4359 
Q 2894 4119 3086 3673 
Q 3278 3228 3278 2384 
Q 3278 1506 3087 986 
Q 2897 466 2520 194 
Q 2144 -78 1638 -78 
Q 1100 -78 759 220 
Q 419 519 350 1059 
z
M 2653 3081 
Q 2653 3566 2395 3850 
Q 2138 4134 1775 4134 
Q 1400 4134 1122 3828 
Q 844 3522 844 3034 
Q 844 2597 1108 2323 
Q 1372 2050 1759 2050 
Q 2150 2050 2401 2323 
Q 2653 2597 2653 3081 
z
" transform="scale(0.015625)"/>
       </defs>
       <use xlink:href="#ArialMT-32"/>
       <use xlink:href="#ArialMT-30" x="55.615234"/>
       <use xlink:href="#ArialMT-31" x="111.230469"/>
       <use xlink:href="#ArialMT-37" x="166.845703"/>
       <use xlink:href="#ArialMT-2d" x="222.460938"/>
       <use xlink:href="#ArialMT-30" x="255.761719"/>
       <use xlink:href="#ArialMT-39" x="311.376953"/>
      </g>
     </g>
    </g>
    <g id="xtick_10">
     <g id="line2d_10">
      <g>
       <use xlink:href="#m5eabf9af4c" x="662.201299" y="630" style="fill: #262626; stroke: #262626; stroke-width: 1.25"/>
      </g>
     </g>
     <g id="text_10">
      <!-- 2017-10 -->
      <g style="fill: #262626" transform="translate(642.018877 647.373594)scale(0.11 -0.11)">
       <use xlink:href="#ArialMT-32"/>
       <use xlink:href="#ArialMT-30" x="55.615234"/>
       <use xlink:href="#ArialMT-31" x="111.230469"/>
       <use xlink:href="#ArialMT-37" x="166.845703"/>
       <use xlink:href="#ArialMT-2d" x="222.460938"/>
       <use xlink:href="#ArialMT-31" x="255.761719"/>
       <use xlink:href="#ArialMT-30" x="311.376953"/>
      </g>
     </g>
    </g>
    <g id="xtick_11">
     <g id="line2d_11">
      <g>
       <use xlink:href="#m5eabf9af4c" x="716.551948" y="630" style="fill: #262626; stroke: #262626; stroke-width: 1.25"/>
      </g>
     </g>
     <g id="text_11">
      <!-- 2017-11 -->
      <g style="fill: #262626" transform="translate(696.775151 647.373594)scale(0.11 -0.11)">
       <use xlink:href="#ArialMT-32"/>
       <use xlink:href="#ArialMT-30" x="55.615234"/>
       <use xlink:href="#ArialMT-31" x="111.230469"/>
       <use xlink:href="#ArialMT-37" x="166.845703"/>
       <use xlink:href="#ArialMT-2d" x="222.460938"/>
       <use xlink:href="#ArialMT-31" x="255.761719"/>
       <use xlink:href="#ArialMT-31" x="304.001953"/>
      </g>
     </g>
    </g>
    <g id="xtick_12">
     <g id="line2d_12">
      <g>
       <use xlink:href="#m5eabf9af4c" x="770.902597" y="630" style="fill: #262626; stroke: #262626; stroke-width: 1.25"/>
      </g>
     </g>
     <g id="text_12">
      <!-- 2017-12 -->
      <g style="fill: #262626" transform="translate(750.720176 647.373594)scale(0.11 -0.11)">
       <use xlink:href="#ArialMT-32"/>
       <use xlink:href="#ArialMT-30" x="55.615234"/>
       <use xlink:href="#ArialMT-31" x="111.230469"/>
       <use xlink:href="#ArialMT-37" x="166.845703"/>
       <use xlink:href="#ArialMT-2d" x="222.460938"/>
       <use xlink:href="#ArialMT-31" x="255.761719"/>
       <use xlink:href="#ArialMT-32" x="311.376953"/>
      </g>
     </g>
    </g>
    <g id="xtick_13">
     <g id="line2d_13">
      <g>
       <use xlink:href="#m5eabf9af4c" x="825.253247" y="630" style="fill: #262626; stroke: #262626; stroke-width: 1.25"/>
      </g>
     </g>
     <g id="text_13">
      <!-- 2018-01 -->
      <g style="fill: #262626" transform="translate(805.070825 647.373594)scale(0.11 -0.11)">
       <use xlink:href="#ArialMT-32"/>
       <use xlink:href="#ArialMT-30" x="55.615234"/>
       <use xlink:href="#ArialMT-31" x="111.230469"/>
       <use xlink:href="#ArialMT-38" x="166.845703"/>
       <use xlink:href="#ArialMT-2d" x="222.460938"/>
       <use xlink:href="#ArialMT-30" x="255.761719"/>
       <use xlink:href="#ArialMT-31" x="311.376953"/>
      </g>
     </g>
    </g>
    <g id="xtick_14">
     <g id="line2d_14">
      <g>
       <use xlink:href="#m5eabf9af4c" x="879.603896" y="630" style="fill: #262626; stroke: #262626; stroke-width: 1.25"/>
      </g>
     </g>
     <g id="text_14">
      <!-- 2018-02 -->
      <g style="fill: #262626" transform="translate(859.421474 647.373594)scale(0.11 -0.11)">
       <use xlink:href="#ArialMT-32"/>
       <use xlink:href="#ArialMT-30" x="55.615234"/>
       <use xlink:href="#ArialMT-31" x="111.230469"/>
       <use xlink:href="#ArialMT-38" x="166.845703"/>
       <use xlink:href="#ArialMT-2d" x="222.460938"/>
       <use xlink:href="#ArialMT-30" x="255.761719"/>
       <use xlink:href="#ArialMT-32" x="311.376953"/>
      </g>
     </g>
    </g>
    <g id="xtick_15">
     <g id="line2d_15">
      <g>
       <use xlink:href="#m5eabf9af4c" x="933.954545" y="630" style="fill: #262626; stroke: #262626; stroke-width: 1.25"/>
      </g>
     </g>
     <g id="text_15">
      <!-- 2018-03 -->
      <g style="fill: #262626" transform="translate(913.772124 647.373594)scale(0.11 -0.11)">
       <use xlink:href="#ArialMT-32"/>
       <use xlink:href="#ArialMT-30" x="55.615234"/>
       <use xlink:href="#ArialMT-31" x="111.230469"/>
       <use xlink:href="#ArialMT-38" x="166.845703"/>
       <use xlink:href="#ArialMT-2d" x="222.460938"/>
       <use xlink:href="#ArialMT-30" x="255.761719"/>
       <use xlink:href="#ArialMT-33" x="311.376953"/>
      </g>
     </g>
    </g>
    <g id="text_16">
     <!-- Month and Year -->
     <g style="fill: #262626" transform="translate(511.461563 662.149219)scale(0.12 -0.12)">
      <defs>
       <path id="ArialMT-4d" d="M 475 0 
L 475 4581 
L 1388 4581 
L 2472 1338 
Q 2622 884 2691 659 
Q 2769 909 2934 1394 
L 4031 4581 
L 4847 4581 
L 4847 0 
L 4263 0 
L 4263 3834 
L 2931 0 
L 2384 0 
L 1059 3900 
L 1059 0 
L 475 0 
z
" transform="scale(0.015625)"/>
       <path id="ArialMT-6f" d="M 213 1659 
Q 213 2581 725 3025 
Q 1153 3394 1769 3394 
Q 2453 3394 2887 2945 
Q 3322 2497 3322 1706 
Q 3322 1066 3130 698 
Q 2938 331 2570 128 
Q 2203 -75 1769 -75 
Q 1072 -75 642 372 
Q 213 819 213 1659 
z
M 791 1659 
Q 791 1022 1069 705 
Q 1347 388 1769 388 
Q 2188 388 2466 706 
Q 2744 1025 2744 1678 
Q 2744 2294 2464 2611 
Q 2184 2928 1769 2928 
Q 1347 2928 1069 2612 
Q 791 2297 791 1659 
z
" transform="scale(0.015625)"/>
       <path id="ArialMT-6e" d="M 422 0 
L 422 3319 
L 928 3319 
L 928 2847 
Q 1294 3394 1984 3394 
Q 2284 3394 2536 3286 
Q 2788 3178 2913 3003 
Q 3038 2828 3088 2588 
Q 3119 2431 3119 2041 
L 3119 0 
L 2556 0 
L 2556 2019 
Q 2556 2363 2490 2533 
Q 2425 2703 2258 2804 
Q 2091 2906 1866 2906 
Q 1506 2906 1245 2678 
Q 984 2450 984 1813 
L 984 0 
L 422 0 
z
" transform="scale(0.015625)"/>
       <path id="ArialMT-74" d="M 1650 503 
L 1731 6 
Q 1494 -44 1306 -44 
Q 1000 -44 831 53 
Q 663 150 594 308 
Q 525 466 525 972 
L 525 2881 
L 113 2881 
L 113 3319 
L 525 3319 
L 525 4141 
L 1084 4478 
L 1084 3319 
L 1650 3319 
L 1650 2881 
L 1084 2881 
L 1084 941 
Q 1084 700 1114 631 
Q 1144 563 1211 522 
Q 1278 481 1403 481 
Q 1497 481 1650 503 
z
" transform="scale(0.015625)"/>
       <path id="ArialMT-68" d="M 422 0 
L 422 4581 
L 984 4581 
L 984 2938 
Q 1378 3394 1978 3394 
Q 2347 3394 2619 3248 
Q 2891 3103 3008 2847 
Q 3125 2591 3125 2103 
L 3125 0 
L 2563 0 
L 2563 2103 
Q 2563 2525 2380 2717 
Q 2197 2909 1863 2909 
Q 1613 2909 1392 2779 
Q 1172 2650 1078 2428 
Q 984 2206 984 1816 
L 984 0 
L 422 0 
z
" transform="scale(0.015625)"/>
       <path id="ArialMT-20" transform="scale(0.015625)"/>
       <path id="ArialMT-61" d="M 2588 409 
Q 2275 144 1986 34 
Q 1697 -75 1366 -75 
Q 819 -75 525 192 
Q 231 459 231 875 
Q 231 1119 342 1320 
Q 453 1522 633 1644 
Q 813 1766 1038 1828 
Q 1203 1872 1538 1913 
Q 2219 1994 2541 2106 
Q 2544 2222 2544 2253 
Q 2544 2597 2384 2738 
Q 2169 2928 1744 2928 
Q 1347 2928 1158 2789 
Q 969 2650 878 2297 
L 328 2372 
Q 403 2725 575 2942 
Q 747 3159 1072 3276 
Q 1397 3394 1825 3394 
Q 2250 3394 2515 3294 
Q 2781 3194 2906 3042 
Q 3031 2891 3081 2659 
Q 3109 2516 3109 2141 
L 3109 1391 
Q 3109 606 3145 398 
Q 3181 191 3288 0 
L 2700 0 
Q 2613 175 2588 409 
z
M 2541 1666 
Q 2234 1541 1622 1453 
Q 1275 1403 1131 1340 
Q 988 1278 909 1158 
Q 831 1038 831 891 
Q 831 666 1001 516 
Q 1172 366 1500 366 
Q 1825 366 2078 508 
Q 2331 650 2450 897 
Q 2541 1088 2541 1459 
L 2541 1666 
z
" transform="scale(0.015625)"/>
       <path id="ArialMT-64" d="M 2575 0 
L 2575 419 
Q 2259 -75 1647 -75 
Q 1250 -75 917 144 
Q 584 363 401 755 
Q 219 1147 219 1656 
Q 219 2153 384 2558 
Q 550 2963 881 3178 
Q 1213 3394 1622 3394 
Q 1922 3394 2156 3267 
Q 2391 3141 2538 2938 
L 2538 4581 
L 3097 4581 
L 3097 0 
L 2575 0 
z
M 797 1656 
Q 797 1019 1065 703 
Q 1334 388 1700 388 
Q 2069 388 2326 689 
Q 2584 991 2584 1609 
Q 2584 2291 2321 2609 
Q 2059 2928 1675 2928 
Q 1300 2928 1048 2622 
Q 797 2316 797 1656 
z
" transform="scale(0.015625)"/>
       <path id="ArialMT-59" d="M 1784 0 
L 1784 1941 
L 19 4581 
L 756 4581 
L 1659 3200 
Q 1909 2813 2125 2425 
Q 2331 2784 2625 3234 
L 3513 4581 
L 4219 4581 
L 2391 1941 
L 2391 0 
L 1784 0 
z
" transform="scale(0.015625)"/>
       <path id="ArialMT-65" d="M 2694 1069 
L 3275 997 
Q 3138 488 2766 206 
Q 2394 -75 1816 -75 
Q 1088 -75 661 373 
Q 234 822 234 1631 
Q 234 2469 665 2931 
Q 1097 3394 1784 3394 
Q 2450 3394 2872 2941 
Q 3294 2488 3294 1666 
Q 3294 1616 3291 1516 
L 816 1516 
Q 847 969 1125 678 
Q 1403 388 1819 388 
Q 2128 388 2347 550 
Q 2566 713 2694 1069 
z
M 847 1978 
L 2700 1978 
Q 2663 2397 2488 2606 
Q 2219 2931 1791 2931 
Q 1403 2931 1139 2672 
Q 875 2413 847 1978 
z
" transform="scale(0.015625)"/>
       <path id="ArialMT-72" d="M 416 0 
L 416 3319 
L 922 3319 
L 922 2816 
Q 1116 3169 1280 3281 
Q 1444 3394 1641 3394 
Q 1925 3394 2219 3213 
L 2025 2691 
Q 1819 2813 1613 2813 
Q 1428 2813 1281 2702 
Q 1134 2591 1072 2394 
Q 978 2094 978 1738 
L 978 0 
L 416 0 
z
" transform="scale(0.015625)"/>
      </defs>
      <use xlink:href="#ArialMT-4d"/>
      <use xlink:href="#ArialMT-6f" x="83.300781"/>
      <use xlink:href="#ArialMT-6e" x="138.916016"/>
      <use xlink:href="#ArialMT-74" x="194.53125"/>
      <use xlink:href="#ArialMT-68" x="222.314453"/>
      <use xlink:href="#ArialMT-20" x="277.929688"/>
      <use xlink:href="#ArialMT-61" x="305.712891"/>
      <use xlink:href="#ArialMT-6e" x="361.328125"/>
      <use xlink:href="#ArialMT-64" x="416.943359"/>
      <use xlink:href="#ArialMT-20" x="472.558594"/>
      <use xlink:href="#ArialMT-59" x="498.591797"/>
      <use xlink:href="#ArialMT-65" x="556.166016"/>
      <use xlink:href="#ArialMT-61" x="611.78125"/>
      <use xlink:href="#ArialMT-72" x="667.396484"/>
     </g>
    </g>
   </g>
   <g id="matplotlib.axis_2">
    <g id="ytick_1">
     <g id="line2d_16">
      <defs>
       <path id="m3fe5996ff9" d="M 0 0 
L -6 0 
" style="stroke: #262626; stroke-width: 1.25"/>
      </defs>
      <g>
       <use xlink:href="#m3fe5996ff9" x="135" y="605.290909" style="fill: #262626; stroke: #262626; stroke-width: 1.25"/>
      </g>
     </g>
     <g id="text_17">
      <!-- 0 -->
      <g style="fill: #262626" transform="translate(119.382969 609.227706)scale(0.11 -0.11)">
       <use xlink:href="#ArialMT-30"/>
      </g>
     </g>
    </g>
    <g id="ytick_2">
     <g id="line2d_17">
      <g>
       <use xlink:href="#m3fe5996ff9" x="135" y="507.357807" style="fill: #262626; stroke: #262626; stroke-width: 1.25"/>
      </g>
     </g>
     <g id="text_18">
      <!-- 10 -->
      <g style="fill: #262626" transform="translate(113.265938 511.294604)scale(0.11 -0.11)">
       <use xlink:href="#ArialMT-31"/>
       <use xlink:href="#ArialMT-30" x="55.615234"/>
      </g>
     </g>
    </g>
    <g id="ytick_3">
     <g id="line2d_18">
      <g>
       <use xlink:href="#m3fe5996ff9" x="135" y="409.424704" style="fill: #262626; stroke: #262626; stroke-width: 1.25"/>
      </g>
     </g>
     <g id="text_19">
      <!-- 20 -->
      <g style="fill: #262626" transform="translate(113.265938 413.361501)scale(0.11 -0.11)">
       <use xlink:href="#ArialMT-32"/>
       <use xlink:href="#ArialMT-30" x="55.615234"/>
      </g>
     </g>
    </g>
    <g id="ytick_4">
     <g id="line2d_19">
      <g>
       <use xlink:href="#m3fe5996ff9" x="135" y="311.491602" style="fill: #262626; stroke: #262626; stroke-width: 1.25"/>
      </g>
     </g>
     <g id="text_20">
      <!-- 30 -->
      <g style="fill: #262626" transform="translate(113.265938 315.428399)scale(0.11 -0.11)">
       <use xlink:href="#ArialMT-33"/>
       <use xlink:href="#ArialMT-30" x="55.615234"/>
      </g>
     </g>
    </g>
    <g id="ytick_5">
     <g id="line2d_20">
      <g>
       <use xlink:href="#m3fe5996ff9" x="135" y="213.558499" style="fill: #262626; stroke: #262626; stroke-width: 1.25"/>
      </g>
     </g>
     <g id="text_21">
      <!-- 40 -->
      <g style="fill: #262626" transform="translate(113.265938 217.495296)scale(0.11 -0.11)">
       <use xlink:href="#ArialMT-34"/>
       <use xlink:href="#ArialMT-30" x="55.615234"/>
      </g>
     </g>
    </g>
    <g id="ytick_6">
     <g id="line2d_21">
      <g>
       <use xlink:href="#m3fe5996ff9" x="135" y="115.625397" style="fill: #262626; stroke: #262626; stroke-width: 1.25"/>
      </g>
     </g>
     <g id="text_22">
      <!-- 50 -->
      <g style="fill: #262626" transform="translate(113.265938 119.562194)scale(0.11 -0.11)">
       <use xlink:href="#ArialMT-35"/>
       <use xlink:href="#ArialMT-30" x="55.615234"/>
      </g>
     </g>
    </g>
    <g id="text_23">
     <!-- Average Percent of Discounts -->
     <g style="fill: #262626" transform="translate(106.740313 437.464687)rotate(-90)scale(0.12 -0.12)">
      <defs>
       <path id="ArialMT-41" d="M -9 0 
L 1750 4581 
L 2403 4581 
L 4278 0 
L 3588 0 
L 3053 1388 
L 1138 1388 
L 634 0 
L -9 0 
z
M 1313 1881 
L 2866 1881 
L 2388 3150 
Q 2169 3728 2063 4100 
Q 1975 3659 1816 3225 
L 1313 1881 
z
" transform="scale(0.015625)"/>
       <path id="ArialMT-76" d="M 1344 0 
L 81 3319 
L 675 3319 
L 1388 1331 
Q 1503 1009 1600 663 
Q 1675 925 1809 1294 
L 2547 3319 
L 3125 3319 
L 1869 0 
L 1344 0 
z
" transform="scale(0.015625)"/>
       <path id="ArialMT-67" d="M 319 -275 
L 866 -356 
Q 900 -609 1056 -725 
Q 1266 -881 1628 -881 
Q 2019 -881 2231 -725 
Q 2444 -569 2519 -288 
Q 2563 -116 2559 434 
Q 2191 0 1641 0 
Q 956 0 581 494 
Q 206 988 206 1678 
Q 206 2153 378 2554 
Q 550 2956 876 3175 
Q 1203 3394 1644 3394 
Q 2231 3394 2613 2919 
L 2613 3319 
L 3131 3319 
L 3131 450 
Q 3131 -325 2973 -648 
Q 2816 -972 2473 -1159 
Q 2131 -1347 1631 -1347 
Q 1038 -1347 672 -1080 
Q 306 -813 319 -275 
z
M 784 1719 
Q 784 1066 1043 766 
Q 1303 466 1694 466 
Q 2081 466 2343 764 
Q 2606 1063 2606 1700 
Q 2606 2309 2336 2618 
Q 2066 2928 1684 2928 
Q 1309 2928 1046 2623 
Q 784 2319 784 1719 
z
" transform="scale(0.015625)"/>
       <path id="ArialMT-50" d="M 494 0 
L 494 4581 
L 2222 4581 
Q 2678 4581 2919 4538 
Q 3256 4481 3484 4323 
Q 3713 4166 3852 3881 
Q 3991 3597 3991 3256 
Q 3991 2672 3619 2267 
Q 3247 1863 2275 1863 
L 1100 1863 
L 1100 0 
L 494 0 
z
M 1100 2403 
L 2284 2403 
Q 2872 2403 3119 2622 
Q 3366 2841 3366 3238 
Q 3366 3525 3220 3729 
Q 3075 3934 2838 4000 
Q 2684 4041 2272 4041 
L 1100 4041 
L 1100 2403 
z
" transform="scale(0.015625)"/>
       <path id="ArialMT-63" d="M 2588 1216 
L 3141 1144 
Q 3050 572 2676 248 
Q 2303 -75 1759 -75 
Q 1078 -75 664 370 
Q 250 816 250 1647 
Q 250 2184 428 2587 
Q 606 2991 970 3192 
Q 1334 3394 1763 3394 
Q 2303 3394 2647 3120 
Q 2991 2847 3088 2344 
L 2541 2259 
Q 2463 2594 2264 2762 
Q 2066 2931 1784 2931 
Q 1359 2931 1093 2626 
Q 828 2322 828 1663 
Q 828 994 1084 691 
Q 1341 388 1753 388 
Q 2084 388 2306 591 
Q 2528 794 2588 1216 
z
" transform="scale(0.015625)"/>
       <path id="ArialMT-66" d="M 556 0 
L 556 2881 
L 59 2881 
L 59 3319 
L 556 3319 
L 556 3672 
Q 556 4006 616 4169 
Q 697 4388 901 4523 
Q 1106 4659 1475 4659 
Q 1713 4659 2000 4603 
L 1916 4113 
Q 1741 4144 1584 4144 
Q 1328 4144 1222 4034 
Q 1116 3925 1116 3625 
L 1116 3319 
L 1763 3319 
L 1763 2881 
L 1116 2881 
L 1116 0 
L 556 0 
z
" transform="scale(0.015625)"/>
       <path id="ArialMT-44" d="M 494 0 
L 494 4581 
L 2072 4581 
Q 2606 4581 2888 4516 
Q 3281 4425 3559 4188 
Q 3922 3881 4101 3404 
Q 4281 2928 4281 2316 
Q 4281 1794 4159 1391 
Q 4038 988 3847 723 
Q 3656 459 3429 307 
Q 3203 156 2883 78 
Q 2563 0 2147 0 
L 494 0 
z
M 1100 541 
L 2078 541 
Q 2531 541 2789 625 
Q 3047 709 3200 863 
Q 3416 1078 3536 1442 
Q 3656 1806 3656 2325 
Q 3656 3044 3420 3430 
Q 3184 3816 2847 3947 
Q 2603 4041 2063 4041 
L 1100 4041 
L 1100 541 
z
" transform="scale(0.015625)"/>
       <path id="ArialMT-69" d="M 425 3934 
L 425 4581 
L 988 4581 
L 988 3934 
L 425 3934 
z
M 425 0 
L 425 3319 
L 988 3319 
L 988 0 
L 425 0 
z
" transform="scale(0.015625)"/>
       <path id="ArialMT-73" d="M 197 991 
L 753 1078 
Q 800 744 1014 566 
Q 1228 388 1613 388 
Q 2000 388 2187 545 
Q 2375 703 2375 916 
Q 2375 1106 2209 1216 
Q 2094 1291 1634 1406 
Q 1016 1563 777 1677 
Q 538 1791 414 1992 
Q 291 2194 291 2438 
Q 291 2659 392 2848 
Q 494 3038 669 3163 
Q 800 3259 1026 3326 
Q 1253 3394 1513 3394 
Q 1903 3394 2198 3281 
Q 2494 3169 2634 2976 
Q 2775 2784 2828 2463 
L 2278 2388 
Q 2241 2644 2061 2787 
Q 1881 2931 1553 2931 
Q 1166 2931 1000 2803 
Q 834 2675 834 2503 
Q 834 2394 903 2306 
Q 972 2216 1119 2156 
Q 1203 2125 1616 2013 
Q 2213 1853 2448 1751 
Q 2684 1650 2818 1456 
Q 2953 1263 2953 975 
Q 2953 694 2789 445 
Q 2625 197 2315 61 
Q 2006 -75 1616 -75 
Q 969 -75 630 194 
Q 291 463 197 991 
z
" transform="scale(0.015625)"/>
       <path id="ArialMT-75" d="M 2597 0 
L 2597 488 
Q 2209 -75 1544 -75 
Q 1250 -75 995 37 
Q 741 150 617 320 
Q 494 491 444 738 
Q 409 903 409 1263 
L 409 3319 
L 972 3319 
L 972 1478 
Q 972 1038 1006 884 
Q 1059 663 1231 536 
Q 1403 409 1656 409 
Q 1909 409 2131 539 
Q 2353 669 2445 892 
Q 2538 1116 2538 1541 
L 2538 3319 
L 3100 3319 
L 3100 0 
L 2597 0 
z
" transform="scale(0.015625)"/>
      </defs>
      <use xlink:href="#ArialMT-41"/>
      <use xlink:href="#ArialMT-76" x="64.949219"/>
      <use xlink:href="#ArialMT-65" x="114.949219"/>
      <use xlink:href="#ArialMT-72" x="170.564453"/>
      <use xlink:href="#ArialMT-61" x="203.865234"/>
      <use xlink:href="#ArialMT-67" x="259.480469"/>
      <use xlink:href="#ArialMT-65" x="315.095703"/>
      <use xlink:href="#ArialMT-20" x="370.710938"/>
      <use xlink:href="#ArialMT-50" x="398.494141"/>
      <use xlink:href="#ArialMT-65" x="465.193359"/>
      <use xlink:href="#ArialMT-72" x="520.808594"/>
      <use xlink:href="#ArialMT-63" x="554.109375"/>
      <use xlink:href="#ArialMT-65" x="604.109375"/>
      <use xlink:href="#ArialMT-6e" x="659.724609"/>
      <use xlink:href="#ArialMT-74" x="715.339844"/>
      <use xlink:href="#ArialMT-20" x="743.123047"/>
      <use xlink:href="#ArialMT-6f" x="770.90625"/>
      <use xlink:href="#ArialMT-66" x="826.521484"/>
      <use xlink:href="#ArialMT-20" x="854.304688"/>
      <use xlink:href="#ArialMT-44" x="882.087891"/>
      <use xlink:href="#ArialMT-69" x="954.304688"/>
      <use xlink:href="#ArialMT-73" x="976.521484"/>
      <use xlink:href="#ArialMT-63" x="1026.521484"/>
      <use xlink:href="#ArialMT-6f" x="1076.521484"/>
      <use xlink:href="#ArialMT-75" x="1132.136719"/>
      <use xlink:href="#ArialMT-6e" x="1187.751953"/>
      <use xlink:href="#ArialMT-74" x="1243.367188"/>
      <use xlink:href="#ArialMT-73" x="1271.150391"/>
     </g>
    </g>
   </g>
   <g id="line2d_22">
    <path d="M 173.045455 305.013304 
L 227.396104 356.912088 
L 281.746753 349.391848 
L 336.097403 397.861026 
L 390.448052 417.181957 
L 444.798701 386.835677 
L 499.149351 305.006671 
L 553.5 347.497867 
L 607.850649 344.220896 
L 662.201299 300.928973 
L 716.551948 334.826801 
L 770.902597 360.512467 
L 825.253247 338.296428 
L 879.603896 309.614039 
L 933.954545 334.778891 
" clip-path="url(#pcd6a52aec9)" style="fill: none; stroke: #f77189; stroke-width: 1.5; stroke-linecap: round"/>
   </g>
   <g id="line2d_23">
    <path d="M 173.045455 407.556459 
L 227.396104 482.741051 
L 281.746753 385.27823 
L 336.097403 439.551016 
L 390.448052 438.495297 
L 444.798701 436.090342 
L 499.149351 473.426289 
L 553.5 484.138953 
L 607.850649 483.89459 
L 662.201299 310.730891 
L 716.551948 380.90087 
L 770.902597 439.197333 
L 825.253247 451.937351 
L 879.603896 398.630957 
L 933.954545 499.712918 
" clip-path="url(#pcd6a52aec9)" style="fill: none; stroke-dasharray: 6,2.25; stroke-dashoffset: 0; stroke: #f37a32; stroke-width: 1.5"/>
   </g>
   <g id="line2d_24">
    <path d="M 173.045455 394.680492 
L 227.396104 495.668417 
L 281.746753 527.087899 
L 336.097403 505.981842 
L 390.448052 451.655268 
L 444.798701 477.435063 
L 499.149351 464.076133 
L 553.5 496.434851 
L 607.850649 512.20986 
L 662.201299 509.219982 
L 716.551948 503.041955 
L 770.902597 509.932034 
L 825.253247 500.247349 
L 879.603896 505.073106 
L 933.954545 502.765252 
" clip-path="url(#pcd6a52aec9)" style="fill: none; stroke-dasharray: 1.5,1.5; stroke-dashoffset: 0; stroke: #ca9232; stroke-width: 1.5"/>
   </g>
   <g id="line2d_25">
    <path d="M 173.045455 401.546722 
L 227.396104 426.238526 
L 281.746753 413.338801 
L 336.097403 446.493106 
L 390.448052 459.089182 
L 444.798701 444.665676 
L 499.149351 418.873643 
L 553.5 429.567505 
L 607.850649 410.998521 
L 662.201299 464.559997 
L 716.551948 439.654575 
L 770.902597 522.663566 
L 825.253247 537.305218 
L 879.603896 528.911368 
L 933.954545 553.261342 
" clip-path="url(#pcd6a52aec9)" style="fill: none; stroke-dasharray: 4.5,1.875,2.25,1.875; stroke-dashoffset: 0; stroke: #ae9d31; stroke-width: 1.5"/>
   </g>
   <g id="line2d_26">
    <path d="M 173.045455 274.769873 
L 227.396104 390.83038 
L 281.746753 171.011447 
L 336.097403 415.103811 
L 390.448052 451.686552 
L 444.798701 442.579821 
L 499.149351 440.796583 
L 553.5 333.307471 
L 607.850649 394.840661 
L 662.201299 381.712341 
L 716.551948 439.247661 
L 770.902597 451.252765 
L 825.253247 407.590723 
L 879.603896 415.745081 
L 933.954545 437.013403 
" clip-path="url(#pcd6a52aec9)" style="fill: none; stroke-dasharray: 7.5,1.5,1.5,1.5; stroke-dashoffset: 0; stroke: #8ea631; stroke-width: 1.5"/>
   </g>
   <g id="line2d_27">
    <path d="M 173.045455 407.940275 
L 227.396104 411.630759 
L 336.097403 466.936925 
L 390.448052 412.670475 
L 444.798701 378.286874 
L 499.149351 246.35934 
L 553.5 292.742498 
L 607.850649 336.282379 
L 662.201299 404.721164 
L 716.551948 339.742074 
L 770.902597 338.793241 
L 825.253247 309.757694 
L 879.603896 331.174493 
L 933.954545 387.308158 
" clip-path="url(#pcd6a52aec9)" style="fill: none; stroke-dasharray: 4.5,1.875,1.875,1.875,1.875,1.875; stroke-dashoffset: 0; stroke: #50b131; stroke-width: 1.5"/>
   </g>
   <g id="line2d_28">
    <path d="M 173.045455 259.344178 
L 227.396104 256.87241 
L 281.746753 111.109091 
L 336.097403 357.068191 
L 390.448052 313.547074 
L 444.798701 319.695056 
L 499.149351 287.037686 
L 553.5 232.524934 
L 607.850649 309.078482 
L 662.201299 249.043086 
L 716.551948 312.0821 
L 770.902597 391.980488 
L 825.253247 320.466799 
L 879.603896 418.442397 
L 933.954545 231.100538 
" clip-path="url(#pcd6a52aec9)" style="fill: none; stroke-dasharray: 6,1.5,6,1.5,1.5,1.5; stroke-dashoffset: 0; stroke: #33b07a; stroke-width: 1.5"/>
   </g>
   <g id="line2d_29">
    <path d="M 173.045455 378.066021 
L 227.396104 395.267123 
L 281.746753 438.829196 
L 336.097403 350.654523 
L 390.448052 426.369623 
L 444.798701 434.635348 
L 499.149351 285.690556 
L 553.5 423.803228 
L 607.850649 411.305174 
L 662.201299 415.397932 
L 716.551948 370.046407 
L 770.902597 428.311538 
L 825.253247 395.440013 
L 879.603896 435.824313 
L 933.954545 432.225789 
" clip-path="url(#pcd6a52aec9)" style="fill: none; stroke-dasharray: 4.5,1.875,4.5,1.875,1.875,1.875; stroke-dashoffset: 0; stroke: #35ae99; stroke-width: 1.5"/>
   </g>
   <g id="line2d_30">
    <path d="M 173.045455 327.416394 
L 227.396104 398.843275 
L 281.746753 381.123579 
L 336.097403 343.556973 
L 390.448052 285.083423 
L 444.798701 400.637361 
L 499.149351 255.078895 
L 553.5 242.171892 
L 607.850649 353.876732 
L 662.201299 333.593603 
L 716.551948 288.311199 
L 770.902597 374.143904 
L 825.253247 174.637374 
L 879.603896 355.176544 
L 933.954545 257.972591 
" clip-path="url(#pcd6a52aec9)" style="fill: none; stroke-dasharray: 6,1.5,1.5,1.5,1.5,1.5; stroke-dashoffset: 0; stroke: #36acae; stroke-width: 1.5"/>
   </g>
   <g id="line2d_31">
    <path d="M 173.045455 445.114935 
L 227.396104 454.609324 
L 281.746753 502.413587 
L 336.097403 478.431825 
L 390.448052 476.461628 
L 444.798701 475.658864 
L 499.149351 448.504717 
L 553.5 474.682433 
L 607.850649 437.522834 
L 662.201299 467.742325 
L 716.551948 430.895999 
L 770.902597 446.468879 
L 825.253247 433.098258 
L 879.603896 422.710086 
L 933.954545 408.967621 
" clip-path="url(#pcd6a52aec9)" style="fill: none; stroke-dasharray: 4.5,1.875,1.875,1.875,1.875,1.875,1.875,1.875; stroke-dashoffset: 0; stroke: #38a9c5; stroke-width: 1.5"/>
   </g>
   <g id="line2d_32">
    <path d="M 173.045455 396.06389 
L 227.396104 371.411399 
L 281.746753 359.474306 
L 336.097403 415.116277 
L 390.448052 441.700249 
L 444.798701 387.790219 
L 499.149351 237.871916 
L 553.5 387.17478 
L 607.850649 421.328699 
L 662.201299 460.085513 
L 716.551948 441.917074 
L 770.902597 466.170352 
L 825.253247 392.714065 
L 879.603896 483.142864 
L 933.954545 493.953161 
" clip-path="url(#pcd6a52aec9)" style="fill: none; stroke-dasharray: 6,1.5,6,1.5,6,1.5,1.5,1.5; stroke-dashoffset: 0; stroke: #3ba3ec; stroke-width: 1.5"/>
   </g>
   <g id="line2d_33">
    <path d="M 173.045455 487.970702 
L 227.396104 495.130559 
L 281.746753 514.728679 
L 336.097403 509.15571 
L 390.448052 498.11025 
L 444.798701 462.797389 
L 499.149351 472.420046 
L 553.5 498.04061 
L 607.850649 404.230519 
L 662.201299 446.502684 
L 716.551948 486.769755 
L 770.902597 484.049535 
L 825.253247 485.192009 
L 879.603896 497.436686 
L 933.954545 479.379918 
" clip-path="url(#pcd6a52aec9)" style="fill: none; stroke-dasharray: 4.5,1.875,4.5,1.875,1.875,1.875,1.875,1.875; stroke-dashoffset: 0; stroke: #9591f4; stroke-width: 1.5"/>
   </g>
   <g id="line2d_34">
    <path d="M 173.045455 532.005062 
L 227.396104 555.118037 
L 281.746753 585.85216 
L 336.097403 554.969086 
L 390.448052 520.731096 
L 444.798701 551.205523 
L 499.149351 518.915835 
L 553.5 500.000456 
L 607.850649 533.990765 
L 662.201299 512.828207 
L 716.551948 494.267286 
L 770.902597 523.794203 
L 825.253247 496.39086 
L 879.603896 563.82131 
L 933.954545 514.704075 
" clip-path="url(#pcd6a52aec9)" style="fill: none; stroke-dasharray: 6,1.5,6,1.5,1.5,1.5,1.5,1.5; stroke-dashoffset: 0; stroke: #cc7af4; stroke-width: 1.5"/>
   </g>
   <g id="line2d_35">
    <path d="M 173.045455 239.589979 
L 227.396104 352.479719 
L 281.746753 273.75554 
L 336.097403 469.598359 
L 390.448052 431.367831 
L 444.798701 445.665925 
L 499.149351 420.035681 
L 553.5 435.974224 
L 607.850649 483.493573 
L 662.201299 504.5063 
L 716.551948 463.542085 
L 770.902597 496.108627 
L 825.253247 492.05142 
L 879.603896 441.938661 
L 933.954545 344.956702 
" clip-path="url(#pcd6a52aec9)" style="fill: none; stroke-dasharray: 4.5,1.875,4.5,1.875,4.5,1.875,1.875,1.875; stroke-dashoffset: 0; stroke: #f560e4; stroke-width: 1.5"/>
   </g>
   <g id="line2d_36">
    <path d="M 173.045455 561.834564 
L 227.396104 553.929487 
L 390.448052 605.290909 
L 499.149351 404.279136 
L 553.5 324.978616 
L 607.850649 297.868505 
L 662.201299 388.235542 
L 716.551948 481.653704 
L 770.902597 499.673839 
L 825.253247 492.706215 
L 879.603896 448.234044 
L 933.954545 478.233295 
" clip-path="url(#pcd6a52aec9)" style="fill: none; stroke-dasharray: 6,1.5,1.5,1.5,1.5,1.5,1.5,1.5; stroke-dashoffset: 0; stroke: #f66ab7; stroke-width: 1.5"/>
   </g>
   <g id="line2d_37"/>
   <g id="line2d_38"/>
   <g id="line2d_39"/>
   <g id="line2d_40"/>
   <g id="line2d_41"/>
   <g id="line2d_42"/>
   <g id="line2d_43"/>
   <g id="line2d_44"/>
   <g id="line2d_45"/>
   <g id="line2d_46"/>
   <g id="line2d_47"/>
   <g id="line2d_48"/>
   <g id="line2d_49"/>
   <g id="line2d_50"/>
   <g id="line2d_51"/>
   <g id="patch_3">
    <path d="M 135 630 
L 135 86.4 
" style="fill: none; stroke: #262626; stroke-width: 1.25; stroke-linejoin: miter; stroke-linecap: square"/>
   </g>
   <g id="patch_4">
    <path d="M 135 630 
L 972 630 
" style="fill: none; stroke: #262626; stroke-width: 1.25; stroke-linejoin: miter; stroke-linecap: square"/>
   </g>
   <g id="text_24">
    <!-- Average Discount Percent over time by Product-Category -->
    <g style="fill: #262626" transform="translate(299.129687 80.4)scale(0.2 -0.2)">
     <defs>
      <path id="ArialMT-6d" d="M 422 0 
L 422 3319 
L 925 3319 
L 925 2853 
Q 1081 3097 1340 3245 
Q 1600 3394 1931 3394 
Q 2300 3394 2536 3241 
Q 2772 3088 2869 2813 
Q 3263 3394 3894 3394 
Q 4388 3394 4653 3120 
Q 4919 2847 4919 2278 
L 4919 0 
L 4359 0 
L 4359 2091 
Q 4359 2428 4304 2576 
Q 4250 2725 4106 2815 
Q 3963 2906 3769 2906 
Q 3419 2906 3187 2673 
Q 2956 2441 2956 1928 
L 2956 0 
L 2394 0 
L 2394 2156 
Q 2394 2531 2256 2718 
Q 2119 2906 1806 2906 
Q 1569 2906 1367 2781 
Q 1166 2656 1075 2415 
Q 984 2175 984 1722 
L 984 0 
L 422 0 
z
" transform="scale(0.015625)"/>
      <path id="ArialMT-62" d="M 941 0 
L 419 0 
L 419 4581 
L 981 4581 
L 981 2947 
Q 1338 3394 1891 3394 
Q 2197 3394 2470 3270 
Q 2744 3147 2920 2923 
Q 3097 2700 3197 2384 
Q 3297 2069 3297 1709 
Q 3297 856 2875 390 
Q 2453 -75 1863 -75 
Q 1275 -75 941 416 
L 941 0 
z
M 934 1684 
Q 934 1088 1097 822 
Q 1363 388 1816 388 
Q 2184 388 2453 708 
Q 2722 1028 2722 1663 
Q 2722 2313 2464 2622 
Q 2206 2931 1841 2931 
Q 1472 2931 1203 2611 
Q 934 2291 934 1684 
z
" transform="scale(0.015625)"/>
      <path id="ArialMT-79" d="M 397 -1278 
L 334 -750 
Q 519 -800 656 -800 
Q 844 -800 956 -737 
Q 1069 -675 1141 -563 
Q 1194 -478 1313 -144 
Q 1328 -97 1363 -6 
L 103 3319 
L 709 3319 
L 1400 1397 
Q 1534 1031 1641 628 
Q 1738 1016 1872 1384 
L 2581 3319 
L 3144 3319 
L 1881 -56 
Q 1678 -603 1566 -809 
Q 1416 -1088 1222 -1217 
Q 1028 -1347 759 -1347 
Q 597 -1347 397 -1278 
z
" transform="scale(0.015625)"/>
      <path id="ArialMT-43" d="M 3763 1606 
L 4369 1453 
Q 4178 706 3683 314 
Q 3188 -78 2472 -78 
Q 1731 -78 1267 223 
Q 803 525 561 1097 
Q 319 1669 319 2325 
Q 319 3041 592 3573 
Q 866 4106 1370 4382 
Q 1875 4659 2481 4659 
Q 3169 4659 3637 4309 
Q 4106 3959 4291 3325 
L 3694 3184 
Q 3534 3684 3231 3912 
Q 2928 4141 2469 4141 
Q 1941 4141 1586 3887 
Q 1231 3634 1087 3207 
Q 944 2781 944 2328 
Q 944 1744 1114 1308 
Q 1284 872 1643 656 
Q 2003 441 2422 441 
Q 2931 441 3284 734 
Q 3638 1028 3763 1606 
z
" transform="scale(0.015625)"/>
     </defs>
     <use xlink:href="#ArialMT-41"/>
     <use xlink:href="#ArialMT-76" x="64.949219"/>
     <use xlink:href="#ArialMT-65" x="114.949219"/>
     <use xlink:href="#ArialMT-72" x="170.564453"/>
     <use xlink:href="#ArialMT-61" x="203.865234"/>
     <use xlink:href="#ArialMT-67" x="259.480469"/>
     <use xlink:href="#ArialMT-65" x="315.095703"/>
     <use xlink:href="#ArialMT-20" x="370.710938"/>
     <use xlink:href="#ArialMT-44" x="398.494141"/>
     <use xlink:href="#ArialMT-69" x="470.710938"/>
     <use xlink:href="#ArialMT-73" x="492.927734"/>
     <use xlink:href="#ArialMT-63" x="542.927734"/>
     <use xlink:href="#ArialMT-6f" x="592.927734"/>
     <use xlink:href="#ArialMT-75" x="648.542969"/>
     <use xlink:href="#ArialMT-6e" x="704.158203"/>
     <use xlink:href="#ArialMT-74" x="759.773438"/>
     <use xlink:href="#ArialMT-20" x="787.556641"/>
     <use xlink:href="#ArialMT-50" x="815.339844"/>
     <use xlink:href="#ArialMT-65" x="882.039062"/>
     <use xlink:href="#ArialMT-72" x="937.654297"/>
     <use xlink:href="#ArialMT-63" x="970.955078"/>
     <use xlink:href="#ArialMT-65" x="1020.955078"/>
     <use xlink:href="#ArialMT-6e" x="1076.570312"/>
     <use xlink:href="#ArialMT-74" x="1132.185547"/>
     <use xlink:href="#ArialMT-20" x="1159.96875"/>
     <use xlink:href="#ArialMT-6f" x="1187.751953"/>
     <use xlink:href="#ArialMT-76" x="1243.367188"/>
     <use xlink:href="#ArialMT-65" x="1293.367188"/>
     <use xlink:href="#ArialMT-72" x="1348.982422"/>
     <use xlink:href="#ArialMT-20" x="1382.283203"/>
     <use xlink:href="#ArialMT-74" x="1410.066406"/>
     <use xlink:href="#ArialMT-69" x="1437.849609"/>
     <use xlink:href="#ArialMT-6d" x="1460.066406"/>
     <use xlink:href="#ArialMT-65" x="1543.367188"/>
     <use xlink:href="#ArialMT-20" x="1598.982422"/>
     <use xlink:href="#ArialMT-62" x="1626.765625"/>
     <use xlink:href="#ArialMT-79" x="1682.380859"/>
     <use xlink:href="#ArialMT-20" x="1732.380859"/>
     <use xlink:href="#ArialMT-50" x="1760.164062"/>
     <use xlink:href="#ArialMT-72" x="1826.863281"/>
     <use xlink:href="#ArialMT-6f" x="1860.164062"/>
     <use xlink:href="#ArialMT-64" x="1915.779297"/>
     <use xlink:href="#ArialMT-75" x="1971.394531"/>
     <use xlink:href="#ArialMT-63" x="2027.009766"/>
     <use xlink:href="#ArialMT-74" x="2077.009766"/>
     <use xlink:href="#ArialMT-2d" x="2104.792969"/>
     <use xlink:href="#ArialMT-43" x="2138.09375"/>
     <use xlink:href="#ArialMT-61" x="2210.310547"/>
     <use xlink:href="#ArialMT-74" x="2265.925781"/>
     <use xlink:href="#ArialMT-65" x="2293.708984"/>
     <use xlink:href="#ArialMT-67" x="2349.324219"/>
     <use xlink:href="#ArialMT-6f" x="2404.939453"/>
     <use xlink:href="#ArialMT-72" x="2460.554688"/>
     <use xlink:href="#ArialMT-79" x="2493.855469"/>
    </g>
   </g>
   <g id="legend_1">
    <g id="patch_5">
     <path d="M 852.876875 346.154688 
L 964.3 346.154688 
Q 966.5 346.154688 966.5 343.954688 
L 966.5 94.1 
Q 966.5 91.9 964.3 91.9 
L 852.876875 91.9 
Q 850.676875 91.9 850.676875 94.1 
L 850.676875 343.954688 
Q 850.676875 346.154688 852.876875 346.154688 
z
" style="fill: #ffffff; opacity: 0.8; stroke: #cccccc; stroke-linejoin: miter"/>
    </g>
    <g id="text_25">
     <!-- Product-Category -->
     <g style="fill: #262626" transform="translate(861.57 105.035625)scale(0.12 -0.12)">
      <use xlink:href="#ArialMT-50"/>
      <use xlink:href="#ArialMT-72" x="66.699219"/>
      <use xlink:href="#ArialMT-6f" x="100"/>
      <use xlink:href="#ArialMT-64" x="155.615234"/>
      <use xlink:href="#ArialMT-75" x="211.230469"/>
      <use xlink:href="#ArialMT-63" x="266.845703"/>
      <use xlink:href="#ArialMT-74" x="316.845703"/>
      <use xlink:href="#ArialMT-2d" x="344.628906"/>
      <use xlink:href="#ArialMT-43" x="377.929688"/>
      <use xlink:href="#ArialMT-61" x="450.146484"/>
      <use xlink:href="#ArialMT-74" x="505.761719"/>
      <use xlink:href="#ArialMT-65" x="533.544922"/>
      <use xlink:href="#ArialMT-67" x="589.160156"/>
      <use xlink:href="#ArialMT-6f" x="644.775391"/>
      <use xlink:href="#ArialMT-72" x="700.390625"/>
      <use xlink:href="#ArialMT-79" x="733.691406"/>
     </g>
    </g>
    <g id="line2d_52">
     <path d="M 855.076875 117.084844 
L 866.076875 117.084844 
L 877.076875 117.084844 
" style="fill: none; stroke: #f77189; stroke-width: 1.5; stroke-linecap: round"/>
    </g>
    <g id="text_26">
     <!-- Accessory -->
     <g style="fill: #262626" transform="translate(885.876875 120.934844)scale(0.11 -0.11)">
      <use xlink:href="#ArialMT-41"/>
      <use xlink:href="#ArialMT-63" x="66.699219"/>
      <use xlink:href="#ArialMT-63" x="116.699219"/>
      <use xlink:href="#ArialMT-65" x="166.699219"/>
      <use xlink:href="#ArialMT-73" x="222.314453"/>
      <use xlink:href="#ArialMT-73" x="272.314453"/>
      <use xlink:href="#ArialMT-6f" x="322.314453"/>
      <use xlink:href="#ArialMT-72" x="377.929688"/>
      <use xlink:href="#ArialMT-79" x="411.230469"/>
     </g>
    </g>
    <g id="line2d_53">
     <path d="M 855.076875 132.907656 
L 866.076875 132.907656 
L 877.076875 132.907656 
" style="fill: none; stroke-dasharray: 6,2.25; stroke-dashoffset: 0; stroke: #f37a32; stroke-width: 1.5"/>
    </g>
    <g id="text_27">
     <!-- Graphics Tablet -->
     <g style="fill: #262626" transform="translate(885.876875 136.757656)scale(0.11 -0.11)">
      <defs>
       <path id="ArialMT-47" d="M 2638 1797 
L 2638 2334 
L 4578 2338 
L 4578 638 
Q 4131 281 3656 101 
Q 3181 -78 2681 -78 
Q 2006 -78 1454 211 
Q 903 500 622 1047 
Q 341 1594 341 2269 
Q 341 2938 620 3517 
Q 900 4097 1425 4378 
Q 1950 4659 2634 4659 
Q 3131 4659 3532 4498 
Q 3934 4338 4162 4050 
Q 4391 3763 4509 3300 
L 3963 3150 
Q 3859 3500 3706 3700 
Q 3553 3900 3268 4020 
Q 2984 4141 2638 4141 
Q 2222 4141 1919 4014 
Q 1616 3888 1430 3681 
Q 1244 3475 1141 3228 
Q 966 2803 966 2306 
Q 966 1694 1177 1281 
Q 1388 869 1791 669 
Q 2194 469 2647 469 
Q 3041 469 3416 620 
Q 3791 772 3984 944 
L 3984 1797 
L 2638 1797 
z
" transform="scale(0.015625)"/>
       <path id="ArialMT-70" d="M 422 -1272 
L 422 3319 
L 934 3319 
L 934 2888 
Q 1116 3141 1344 3267 
Q 1572 3394 1897 3394 
Q 2322 3394 2647 3175 
Q 2972 2956 3137 2557 
Q 3303 2159 3303 1684 
Q 3303 1175 3120 767 
Q 2938 359 2589 142 
Q 2241 -75 1856 -75 
Q 1575 -75 1351 44 
Q 1128 163 984 344 
L 984 -1272 
L 422 -1272 
z
M 931 1641 
Q 931 1000 1190 694 
Q 1450 388 1819 388 
Q 2194 388 2461 705 
Q 2728 1022 2728 1688 
Q 2728 2322 2467 2637 
Q 2206 2953 1844 2953 
Q 1484 2953 1207 2617 
Q 931 2281 931 1641 
z
" transform="scale(0.015625)"/>
       <path id="ArialMT-54" d="M 1659 0 
L 1659 4041 
L 150 4041 
L 150 4581 
L 3781 4581 
L 3781 4041 
L 2266 4041 
L 2266 0 
L 1659 0 
z
" transform="scale(0.015625)"/>
       <path id="ArialMT-6c" d="M 409 0 
L 409 4581 
L 972 4581 
L 972 0 
L 409 0 
z
" transform="scale(0.015625)"/>
      </defs>
      <use xlink:href="#ArialMT-47"/>
      <use xlink:href="#ArialMT-72" x="77.783203"/>
      <use xlink:href="#ArialMT-61" x="111.083984"/>
      <use xlink:href="#ArialMT-70" x="166.699219"/>
      <use xlink:href="#ArialMT-68" x="222.314453"/>
      <use xlink:href="#ArialMT-69" x="277.929688"/>
      <use xlink:href="#ArialMT-63" x="300.146484"/>
      <use xlink:href="#ArialMT-73" x="350.146484"/>
      <use xlink:href="#ArialMT-20" x="400.146484"/>
      <use xlink:href="#ArialMT-54" x="426.179688"/>
      <use xlink:href="#ArialMT-61" x="476.138672"/>
      <use xlink:href="#ArialMT-62" x="531.753906"/>
      <use xlink:href="#ArialMT-6c" x="587.369141"/>
      <use xlink:href="#ArialMT-65" x="609.585938"/>
      <use xlink:href="#ArialMT-74" x="665.201172"/>
     </g>
    </g>
    <g id="line2d_54">
     <path d="M 855.076875 148.4675 
L 866.076875 148.4675 
L 877.076875 148.4675 
" style="fill: none; stroke-dasharray: 1.5,1.5; stroke-dashoffset: 0; stroke: #ca9232; stroke-width: 1.5"/>
    </g>
    <g id="text_28">
     <!-- MacBook -->
     <g style="fill: #262626" transform="translate(885.876875 152.3175)scale(0.11 -0.11)">
      <defs>
       <path id="ArialMT-42" d="M 469 0 
L 469 4581 
L 2188 4581 
Q 2713 4581 3030 4442 
Q 3347 4303 3526 4014 
Q 3706 3725 3706 3409 
Q 3706 3116 3547 2856 
Q 3388 2597 3066 2438 
Q 3481 2316 3704 2022 
Q 3928 1728 3928 1328 
Q 3928 1006 3792 729 
Q 3656 453 3456 303 
Q 3256 153 2954 76 
Q 2653 0 2216 0 
L 469 0 
z
M 1075 2656 
L 2066 2656 
Q 2469 2656 2644 2709 
Q 2875 2778 2992 2937 
Q 3109 3097 3109 3338 
Q 3109 3566 3000 3739 
Q 2891 3913 2687 3977 
Q 2484 4041 1991 4041 
L 1075 4041 
L 1075 2656 
z
M 1075 541 
L 2216 541 
Q 2509 541 2628 563 
Q 2838 600 2978 687 
Q 3119 775 3209 942 
Q 3300 1109 3300 1328 
Q 3300 1584 3169 1773 
Q 3038 1963 2805 2039 
Q 2572 2116 2134 2116 
L 1075 2116 
L 1075 541 
z
" transform="scale(0.015625)"/>
       <path id="ArialMT-6b" d="M 425 0 
L 425 4581 
L 988 4581 
L 988 1969 
L 2319 3319 
L 3047 3319 
L 1778 2088 
L 3175 0 
L 2481 0 
L 1384 1697 
L 988 1316 
L 988 0 
L 425 0 
z
" transform="scale(0.015625)"/>
      </defs>
      <use xlink:href="#ArialMT-4d"/>
      <use xlink:href="#ArialMT-61" x="83.300781"/>
      <use xlink:href="#ArialMT-63" x="138.916016"/>
      <use xlink:href="#ArialMT-42" x="188.916016"/>
      <use xlink:href="#ArialMT-6f" x="255.615234"/>
      <use xlink:href="#ArialMT-6f" x="311.230469"/>
      <use xlink:href="#ArialMT-6b" x="366.845703"/>
     </g>
    </g>
    <g id="line2d_55">
     <path d="M 855.076875 164.027344 
L 866.076875 164.027344 
L 877.076875 164.027344 
" style="fill: none; stroke-dasharray: 4.5,1.875,2.25,1.875; stroke-dashoffset: 0; stroke: #ae9d31; stroke-width: 1.5"/>
    </g>
    <g id="text_29">
     <!-- Memory -->
     <g style="fill: #262626" transform="translate(885.876875 167.877344)scale(0.11 -0.11)">
      <use xlink:href="#ArialMT-4d"/>
      <use xlink:href="#ArialMT-65" x="83.300781"/>
      <use xlink:href="#ArialMT-6d" x="138.916016"/>
      <use xlink:href="#ArialMT-6f" x="222.216797"/>
      <use xlink:href="#ArialMT-72" x="277.832031"/>
      <use xlink:href="#ArialMT-79" x="311.132812"/>
     </g>
    </g>
    <g id="line2d_56">
     <path d="M 855.076875 179.716094 
L 866.076875 179.716094 
L 877.076875 179.716094 
" style="fill: none; stroke-dasharray: 7.5,1.5,1.5,1.5; stroke-dashoffset: 0; stroke: #8ea631; stroke-width: 1.5"/>
    </g>
    <g id="text_30">
     <!-- Monitor -->
     <g style="fill: #262626" transform="translate(885.876875 183.566094)scale(0.11 -0.11)">
      <use xlink:href="#ArialMT-4d"/>
      <use xlink:href="#ArialMT-6f" x="83.300781"/>
      <use xlink:href="#ArialMT-6e" x="138.916016"/>
      <use xlink:href="#ArialMT-69" x="194.53125"/>
      <use xlink:href="#ArialMT-74" x="216.748047"/>
      <use xlink:href="#ArialMT-6f" x="244.53125"/>
      <use xlink:href="#ArialMT-72" x="300.146484"/>
     </g>
    </g>
    <g id="line2d_57">
     <path d="M 855.076875 195.275937 
L 866.076875 195.275937 
L 877.076875 195.275937 
" style="fill: none; stroke-dasharray: 4.5,1.875,1.875,1.875,1.875,1.875; stroke-dashoffset: 0; stroke: #50b131; stroke-width: 1.5"/>
    </g>
    <g id="text_31">
     <!-- Network -->
     <g style="fill: #262626" transform="translate(885.876875 199.125937)scale(0.11 -0.11)">
      <defs>
       <path id="ArialMT-4e" d="M 488 0 
L 488 4581 
L 1109 4581 
L 3516 984 
L 3516 4581 
L 4097 4581 
L 4097 0 
L 3475 0 
L 1069 3600 
L 1069 0 
L 488 0 
z
" transform="scale(0.015625)"/>
       <path id="ArialMT-77" d="M 1034 0 
L 19 3319 
L 600 3319 
L 1128 1403 
L 1325 691 
Q 1338 744 1497 1375 
L 2025 3319 
L 2603 3319 
L 3100 1394 
L 3266 759 
L 3456 1400 
L 4025 3319 
L 4572 3319 
L 3534 0 
L 2950 0 
L 2422 1988 
L 2294 2553 
L 1622 0 
L 1034 0 
z
" transform="scale(0.015625)"/>
      </defs>
      <use xlink:href="#ArialMT-4e"/>
      <use xlink:href="#ArialMT-65" x="72.216797"/>
      <use xlink:href="#ArialMT-74" x="127.832031"/>
      <use xlink:href="#ArialMT-77" x="155.615234"/>
      <use xlink:href="#ArialMT-6f" x="227.832031"/>
      <use xlink:href="#ArialMT-72" x="283.447266"/>
      <use xlink:href="#ArialMT-6b" x="316.748047"/>
     </g>
    </g>
    <g id="line2d_58">
     <path d="M 855.076875 210.976719 
L 866.076875 210.976719 
L 877.076875 210.976719 
" style="fill: none; stroke-dasharray: 6,1.5,6,1.5,1.5,1.5; stroke-dashoffset: 0; stroke: #33b07a; stroke-width: 1.5"/>
    </g>
    <g id="text_32">
     <!-- Open -->
     <g style="fill: #262626" transform="translate(885.876875 214.826719)scale(0.11 -0.11)">
      <defs>
       <path id="ArialMT-4f" d="M 309 2231 
Q 309 3372 921 4017 
Q 1534 4663 2503 4663 
Q 3138 4663 3647 4359 
Q 4156 4056 4423 3514 
Q 4691 2972 4691 2284 
Q 4691 1588 4409 1038 
Q 4128 488 3612 205 
Q 3097 -78 2500 -78 
Q 1853 -78 1343 234 
Q 834 547 571 1087 
Q 309 1628 309 2231 
z
M 934 2222 
Q 934 1394 1379 917 
Q 1825 441 2497 441 
Q 3181 441 3623 922 
Q 4066 1403 4066 2288 
Q 4066 2847 3877 3264 
Q 3688 3681 3323 3911 
Q 2959 4141 2506 4141 
Q 1863 4141 1398 3698 
Q 934 3256 934 2222 
z
" transform="scale(0.015625)"/>
      </defs>
      <use xlink:href="#ArialMT-4f"/>
      <use xlink:href="#ArialMT-70" x="77.783203"/>
      <use xlink:href="#ArialMT-65" x="133.398438"/>
      <use xlink:href="#ArialMT-6e" x="189.013672"/>
     </g>
    </g>
    <g id="line2d_59">
     <path d="M 855.076875 226.536563 
L 866.076875 226.536563 
L 877.076875 226.536563 
" style="fill: none; stroke-dasharray: 4.5,1.875,4.5,1.875,1.875,1.875; stroke-dashoffset: 0; stroke: #35ae99; stroke-width: 1.5"/>
    </g>
    <g id="text_33">
     <!-- Other -->
     <g style="fill: #262626" transform="translate(885.876875 230.386563)scale(0.11 -0.11)">
      <use xlink:href="#ArialMT-4f"/>
      <use xlink:href="#ArialMT-74" x="77.783203"/>
      <use xlink:href="#ArialMT-68" x="105.566406"/>
      <use xlink:href="#ArialMT-65" x="161.181641"/>
      <use xlink:href="#ArialMT-72" x="216.796875"/>
     </g>
    </g>
    <g id="line2d_60">
     <path d="M 855.076875 242.096406 
L 866.076875 242.096406 
L 877.076875 242.096406 
" style="fill: none; stroke-dasharray: 6,1.5,1.5,1.5,1.5,1.5; stroke-dashoffset: 0; stroke: #36acae; stroke-width: 1.5"/>
    </g>
    <g id="text_34">
     <!-- Service -->
     <g style="fill: #262626" transform="translate(885.876875 245.946406)scale(0.11 -0.11)">
      <defs>
       <path id="ArialMT-53" d="M 288 1472 
L 859 1522 
Q 900 1178 1048 958 
Q 1197 738 1509 602 
Q 1822 466 2213 466 
Q 2559 466 2825 569 
Q 3091 672 3220 851 
Q 3350 1031 3350 1244 
Q 3350 1459 3225 1620 
Q 3100 1781 2813 1891 
Q 2628 1963 1997 2114 
Q 1366 2266 1113 2400 
Q 784 2572 623 2826 
Q 463 3081 463 3397 
Q 463 3744 659 4045 
Q 856 4347 1234 4503 
Q 1613 4659 2075 4659 
Q 2584 4659 2973 4495 
Q 3363 4331 3572 4012 
Q 3781 3694 3797 3291 
L 3216 3247 
Q 3169 3681 2898 3903 
Q 2628 4125 2100 4125 
Q 1550 4125 1298 3923 
Q 1047 3722 1047 3438 
Q 1047 3191 1225 3031 
Q 1400 2872 2139 2705 
Q 2878 2538 3153 2413 
Q 3553 2228 3743 1945 
Q 3934 1663 3934 1294 
Q 3934 928 3725 604 
Q 3516 281 3123 101 
Q 2731 -78 2241 -78 
Q 1619 -78 1198 103 
Q 778 284 539 648 
Q 300 1013 288 1472 
z
" transform="scale(0.015625)"/>
      </defs>
      <use xlink:href="#ArialMT-53"/>
      <use xlink:href="#ArialMT-65" x="66.699219"/>
      <use xlink:href="#ArialMT-72" x="122.314453"/>
      <use xlink:href="#ArialMT-76" x="155.615234"/>
      <use xlink:href="#ArialMT-69" x="205.615234"/>
      <use xlink:href="#ArialMT-63" x="227.832031"/>
      <use xlink:href="#ArialMT-65" x="277.832031"/>
     </g>
    </g>
    <g id="line2d_61">
     <path d="M 855.076875 257.790313 
L 866.076875 257.790313 
L 877.076875 257.790313 
" style="fill: none; stroke-dasharray: 4.5,1.875,1.875,1.875,1.875,1.875,1.875,1.875; stroke-dashoffset: 0; stroke: #38a9c5; stroke-width: 1.5"/>
    </g>
    <g id="text_35">
     <!-- Storage -->
     <g style="fill: #262626" transform="translate(885.876875 261.640313)scale(0.11 -0.11)">
      <use xlink:href="#ArialMT-53"/>
      <use xlink:href="#ArialMT-74" x="66.699219"/>
      <use xlink:href="#ArialMT-6f" x="94.482422"/>
      <use xlink:href="#ArialMT-72" x="150.097656"/>
      <use xlink:href="#ArialMT-61" x="183.398438"/>
      <use xlink:href="#ArialMT-67" x="239.013672"/>
      <use xlink:href="#ArialMT-65" x="294.628906"/>
     </g>
    </g>
    <g id="line2d_62">
     <path d="M 855.076875 273.479063 
L 866.076875 273.479063 
L 877.076875 273.479063 
" style="fill: none; stroke-dasharray: 6,1.5,6,1.5,6,1.5,1.5,1.5; stroke-dashoffset: 0; stroke: #3ba3ec; stroke-width: 1.5"/>
    </g>
    <g id="text_36">
     <!-- Watch -->
     <g style="fill: #262626" transform="translate(885.876875 277.329063)scale(0.11 -0.11)">
      <defs>
       <path id="ArialMT-57" d="M 1294 0 
L 78 4581 
L 700 4581 
L 1397 1578 
Q 1509 1106 1591 641 
Q 1766 1375 1797 1488 
L 2669 4581 
L 3400 4581 
L 4056 2263 
Q 4303 1400 4413 641 
Q 4500 1075 4641 1638 
L 5359 4581 
L 5969 4581 
L 4713 0 
L 4128 0 
L 3163 3491 
Q 3041 3928 3019 4028 
Q 2947 3713 2884 3491 
L 1913 0 
L 1294 0 
z
" transform="scale(0.015625)"/>
      </defs>
      <use xlink:href="#ArialMT-57"/>
      <use xlink:href="#ArialMT-61" x="90.634766"/>
      <use xlink:href="#ArialMT-74" x="146.25"/>
      <use xlink:href="#ArialMT-63" x="174.033203"/>
      <use xlink:href="#ArialMT-68" x="224.033203"/>
     </g>
    </g>
    <g id="line2d_63">
     <path d="M 855.076875 289.038906 
L 866.076875 289.038906 
L 877.076875 289.038906 
" style="fill: none; stroke-dasharray: 4.5,1.875,4.5,1.875,1.875,1.875,1.875,1.875; stroke-dashoffset: 0; stroke: #9591f4; stroke-width: 1.5"/>
    </g>
    <g id="text_37">
     <!-- iMac -->
     <g style="fill: #262626" transform="translate(885.876875 292.888906)scale(0.11 -0.11)">
      <use xlink:href="#ArialMT-69"/>
      <use xlink:href="#ArialMT-4d" x="22.216797"/>
      <use xlink:href="#ArialMT-61" x="105.517578"/>
      <use xlink:href="#ArialMT-63" x="161.132812"/>
     </g>
    </g>
    <g id="line2d_64">
     <path d="M 855.076875 304.59875 
L 866.076875 304.59875 
L 877.076875 304.59875 
" style="fill: none; stroke-dasharray: 6,1.5,6,1.5,1.5,1.5,1.5,1.5; stroke-dashoffset: 0; stroke: #cc7af4; stroke-width: 1.5"/>
    </g>
    <g id="text_38">
     <!-- iPad -->
     <g style="fill: #262626" transform="translate(885.876875 308.44875)scale(0.11 -0.11)">
      <use xlink:href="#ArialMT-69"/>
      <use xlink:href="#ArialMT-50" x="22.216797"/>
      <use xlink:href="#ArialMT-61" x="88.916016"/>
      <use xlink:href="#ArialMT-64" x="144.53125"/>
     </g>
    </g>
    <g id="line2d_65">
     <path d="M 855.076875 320.158594 
L 866.076875 320.158594 
L 877.076875 320.158594 
" style="fill: none; stroke-dasharray: 4.5,1.875,4.5,1.875,4.5,1.875,1.875,1.875; stroke-dashoffset: 0; stroke: #f560e4; stroke-width: 1.5"/>
    </g>
    <g id="text_39">
     <!-- iPhone -->
     <g style="fill: #262626" transform="translate(885.876875 324.008594)scale(0.11 -0.11)">
      <use xlink:href="#ArialMT-69"/>
      <use xlink:href="#ArialMT-50" x="22.216797"/>
      <use xlink:href="#ArialMT-68" x="88.916016"/>
      <use xlink:href="#ArialMT-6f" x="144.53125"/>
      <use xlink:href="#ArialMT-6e" x="200.146484"/>
      <use xlink:href="#ArialMT-65" x="255.761719"/>
     </g>
    </g>
    <g id="line2d_66">
     <path d="M 855.076875 335.718438 
L 866.076875 335.718438 
L 877.076875 335.718438 
" style="fill: none; stroke-dasharray: 6,1.5,1.5,1.5,1.5,1.5,1.5,1.5; stroke-dashoffset: 0; stroke: #f66ab7; stroke-width: 1.5"/>
    </g>
    <g id="text_40">
     <!-- iPod -->
     <g style="fill: #262626" transform="translate(885.876875 339.568438)scale(0.11 -0.11)">
      <use xlink:href="#ArialMT-69"/>
      <use xlink:href="#ArialMT-50" x="22.216797"/>
      <use xlink:href="#ArialMT-6f" x="88.916016"/>
      <use xlink:href="#ArialMT-64" x="144.53125"/>
     </g>
    </g>
   </g>
  </g>
 </g>
 <defs>
  <clipPath id="pcd6a52aec9">
   <rect x="135" y="86.4" width="837" height="543.6"/>
  </clipPath>
 </defs>
</svg>
